# xmcd
#
# Track frame offsets:
#	150
#	22825
#	43625
#	62863
#	90115
#	107700
#	125010
#	147143
#	168645
#	187733
#
# Disc length: 2747 seconds
#
# Revision: 0
# Processed by: cddbd v1.5.2PL0 Copyright (c) Steve Scherf et al.
# Submitted via: EasyCDDAExtractor 16.0.9.1
#
DISCID=7a0ab90a
DTITLE=Various Artist - Tình Khúc Mùa Xuân
DYEAR=1986
DGENRE=Pop
TTITLE0=Duy Khánh - Xuân Này Con Không Về
TTITLE1=Hương Lan - Mùa Xuân Đầu Tiên
TTITLE2=Sĩ Phú - Tình Khúc Mùa Xuân
TTITLE3=Khánh Ly - Em Còn Nhớ Mùa Xuân
TTITLE4=Elvis Phương - Xuân Tươi
TTITLE5=Ngọc Lan - Cánh Thiệp Đầu Xuân
TTITLE6=Duy Khánh - Thư Xuân Trên Vùng Cao
TTITLE7=Thanh Tuyền - Mùa Xuân Lá Khô
TTITLE8=Duy Quang - Mùa Xuân Đó Có Em
TTITLE9=Thanh Thúy - Mùa Xuân Thăm Nhau
EXTD=
EXTT0=
EXTT1=
EXTT2=
EXTT3=
EXTT4=
EXTT5=
EXTT6=
EXTT7=
EXTT8=
EXTT9=
PLAYORDER=
